<svg xmlns="http://www.w3.org/2000/svg" xmlns:xlink="http://www.w3.org/1999/xlink" width="500" zoomAndPan="magnify" viewBox="0 0 375 374.999991" height="500" preserveAspectRatio="xMidYMid meet" version="1.0"><defs><g/><clipPath id="2745e47dfc"><path d="M 25.0625 25.0625 L 349.8125 25.0625 L 349.8125 349.8125 L 25.0625 349.8125 Z M 25.0625 25.0625 " clip-rule="nonzero"/></clipPath><clipPath id="d0ab57a92a"><path d="M 112.5 131.769531 L 262.5 131.769531 L 262.5 251.769531 L 112.5 251.769531 Z M 112.5 131.769531 " clip-rule="nonzero"/></clipPath></defs><g clip-path="url(#2745e47dfc)"><path fill="#1a154e" d="M 339.765625 230.730469 C 335.648438 244.746094 329.363281 258.046875 321.5625 270.292969 C 315.121094 280.261719 307.796875 289.628906 299.570312 298.148438 C 298.503906 299.3125 297.316406 300.355469 296.1875 301.453125 C 295.039062 302.53125 293.921875 303.644531 292.75 304.699219 L 289.183594 307.800781 L 287.398438 309.351562 L 285.546875 310.824219 L 281.855469 313.773438 C 280.601562 314.730469 279.3125 315.636719 278.042969 316.574219 C 275.539062 318.492188 272.871094 320.175781 270.261719 321.953125 C 269.886719 322.207031 269.492188 322.46875 269.078125 322.746094 C 268.652344 323.003906 268.210938 323.269531 267.75 323.546875 C 266.828125 324.097656 265.839844 324.6875 264.785156 325.320312 C 262.699219 326.628906 260.230469 327.863281 257.570312 329.277344 C 256.898438 329.625 256.226562 330 255.519531 330.339844 C 254.808594 330.671875 254.082031 331.007812 253.339844 331.351562 C 251.859375 332.035156 250.328125 332.742188 248.746094 333.476562 C 245.5 334.742188 242.117188 336.265625 238.425781 337.449219 C 223.859375 342.730469 205.679688 345.996094 187.4375 346.070312 C 169.191406 345.996094 151.011719 342.730469 136.445312 337.449219 C 132.753906 336.265625 129.375 334.742188 126.128906 333.476562 C 124.546875 332.742188 123.011719 332.035156 121.53125 331.351562 C 120.792969 331.007812 120.066406 330.671875 119.355469 330.339844 C 118.644531 330.003906 117.972656 329.625 117.304688 329.277344 C 114.640625 327.863281 112.171875 326.628906 110.089844 325.320312 C 109.035156 324.6875 108.042969 324.097656 107.125 323.546875 C 106.664062 323.269531 106.21875 323.003906 105.796875 322.746094 C 105.382812 322.472656 104.988281 322.207031 104.613281 321.953125 C 94.699219 315.457031 85.390625 308.082031 76.925781 299.792969 C 67.996094 290.875 60.195312 280.886719 53.3125 270.296875 C 45.511719 258.046875 39.222656 244.746094 35.105469 230.730469 C 30.820312 216.761719 28.839844 202.097656 28.710938 187.4375 C 28.839844 172.773438 30.820312 158.113281 35.105469 144.140625 C 39.222656 130.125 45.511719 116.828125 53.3125 104.578125 C 59.75 94.613281 67.074219 85.246094 75.304688 76.722656 C 76.367188 75.558594 77.554688 74.519531 78.683594 73.421875 C 79.835938 72.339844 80.949219 71.226562 82.125 70.175781 L 85.691406 67.070312 L 87.472656 65.519531 L 89.324219 64.050781 L 93.019531 61.097656 C 94.269531 60.140625 95.5625 59.234375 96.828125 58.296875 C 99.335938 56.382812 102 54.695312 104.609375 52.921875 C 104.984375 52.667969 105.382812 52.402344 105.792969 52.125 C 106.21875 51.871094 106.660156 51.605469 107.121094 51.328125 C 108.042969 50.777344 109.035156 50.183594 110.089844 49.554688 C 112.171875 48.242188 114.640625 47.011719 117.304688 45.59375 C 117.972656 45.25 118.644531 44.871094 119.355469 44.53125 C 120.066406 44.203125 120.789062 43.863281 121.53125 43.519531 C 123.011719 42.835938 124.546875 42.128906 126.128906 41.398438 C 129.371094 40.128906 132.753906 38.605469 136.445312 37.425781 C 151.011719 32.144531 169.191406 28.878906 187.4375 28.800781 C 205.679688 28.878906 223.859375 32.144531 238.425781 37.425781 C 242.117188 38.605469 245.5 40.128906 248.746094 41.398438 C 250.328125 42.128906 251.859375 42.835938 253.339844 43.519531 C 254.078125 43.863281 254.808594 44.203125 255.519531 44.53125 C 256.226562 44.871094 256.898438 45.25 257.566406 45.59375 C 260.230469 47.007812 262.699219 48.242188 264.78125 49.550781 C 265.835938 50.183594 266.828125 50.777344 267.75 51.328125 C 268.207031 51.601562 268.652344 51.867188 269.078125 52.125 C 269.488281 52.402344 269.882812 52.667969 270.261719 52.917969 C 280.171875 59.414062 289.484375 66.792969 297.945312 75.078125 C 306.875 83.996094 314.679688 93.984375 321.558594 104.578125 C 329.363281 116.824219 335.648438 130.125 339.765625 144.140625 C 344.050781 158.113281 346.035156 172.773438 346.160156 187.4375 C 346.035156 202.097656 344.050781 216.761719 339.765625 230.730469 Z M 349.808594 187.328125 L 349.804688 187.316406 C 349.671875 172.34375 347.660156 157.363281 343.296875 143.078125 C 339.101562 128.75 332.679688 115.148438 324.667969 102.65625 L 320.816406 96.871094 C 320.816406 96.871094 319.703125 95.3125 318.035156 92.980469 C 316.429688 90.597656 313.96875 87.660156 311.621094 84.640625 C 309.089844 81.773438 306.664062 78.816406 304.621094 76.796875 C 302.636719 74.726562 301.316406 73.347656 301.316406 73.347656 C 301.316406 73.347656 300.980469 73.003906 300.378906 72.425781 C 299.777344 71.84375 298.917969 71.015625 297.886719 70.019531 C 295.875 67.96875 292.957031 65.5 290.09375 62.96875 C 288.621094 61.746094 287.109375 60.578125 285.714844 59.453125 C 285.011719 58.894531 284.335938 58.355469 283.691406 57.84375 C 283.027344 57.363281 282.394531 56.910156 281.8125 56.492188 C 279.488281 54.8125 277.9375 53.695312 277.9375 53.695312 C 277.9375 53.695312 277.601562 53.421875 277.054688 53.066406 C 276.511719 52.707031 275.792969 52.222656 275.074219 51.738281 C 273.628906 50.773438 272.1875 49.808594 272.1875 49.808594 C 271.800781 49.546875 271.398438 49.277344 270.976562 48.992188 C 270.542969 48.726562 270.089844 48.453125 269.621094 48.171875 C 268.679688 47.605469 267.664062 46.996094 266.589844 46.347656 C 264.457031 45.003906 261.933594 43.738281 259.210938 42.285156 C 258.527344 41.929688 257.839844 41.542969 257.113281 41.195312 C 256.386719 40.855469 255.644531 40.511719 254.886719 40.160156 C 253.371094 39.457031 251.800781 38.730469 250.183594 37.980469 C 246.863281 36.675781 243.402344 35.121094 239.625 33.902344 C 224.71875 28.488281 206.101562 25.132812 187.4375 25.0625 C 168.769531 25.132812 150.152344 28.488281 135.246094 33.90625 C 131.46875 35.121094 128.007812 36.675781 124.6875 37.980469 C 123.066406 38.730469 121.5 39.457031 119.984375 40.160156 C 119.226562 40.511719 118.484375 40.859375 117.757812 41.195312 C 117.03125 41.542969 116.34375 41.929688 115.660156 42.285156 C 112.9375 43.738281 110.414062 45.003906 108.28125 46.347656 C 107.207031 46.996094 106.195312 47.605469 105.25 48.171875 C 104.78125 48.453125 104.328125 48.730469 103.894531 48.992188 C 103.472656 49.277344 103.070312 49.546875 102.683594 49.808594 C 102.683594 49.808594 101.242188 50.773438 99.800781 51.738281 C 99.078125 52.222656 98.359375 52.707031 97.816406 53.066406 C 97.273438 53.421875 96.933594 53.695312 96.933594 53.695312 C 96.933594 53.695312 95.382812 54.8125 93.058594 56.492188 C 92.476562 56.910156 91.847656 57.363281 91.179688 57.84375 C 90.539062 58.355469 89.859375 58.894531 89.160156 59.453125 C 87.761719 60.578125 86.25 61.746094 84.78125 62.96875 C 81.917969 65.5 78.996094 67.96875 76.984375 70.019531 C 75.953125 71.015625 75.097656 71.84375 74.496094 72.425781 C 73.890625 73.003906 73.558594 73.347656 73.558594 73.347656 C 73.558594 73.347656 72.234375 74.726562 70.25 76.796875 C 68.210938 78.816406 65.785156 81.773438 63.253906 84.640625 C 60.902344 87.660156 58.441406 90.597656 56.835938 92.980469 C 55.167969 95.316406 54.054688 96.871094 54.054688 96.871094 L 50.203125 102.65625 C 42.195312 115.148438 35.769531 128.75 31.574219 143.078125 C 27.210938 157.363281 25.199219 172.34375 25.066406 187.316406 L 25.0625 187.328125 L 25.0625 187.542969 L 25.066406 187.558594 C 25.199219 202.527344 27.210938 217.511719 31.574219 231.792969 C 35.769531 246.121094 42.195312 259.722656 50.203125 272.214844 L 54.054688 278 C 54.054688 278 55.167969 279.558594 56.835938 281.894531 C 58.445312 284.277344 60.902344 287.210938 63.253906 290.230469 C 65.785156 293.097656 68.210938 296.058594 70.25 298.074219 C 72.234375 300.144531 73.558594 301.527344 73.558594 301.527344 C 73.558594 301.527344 73.890625 301.867188 74.496094 302.445312 C 75.097656 303.027344 75.953125 303.859375 76.984375 304.855469 C 78.996094 306.902344 81.917969 309.371094 84.78125 311.902344 C 86.25 313.125 87.761719 314.292969 89.160156 315.417969 C 89.859375 315.976562 90.539062 316.515625 91.179688 317.027344 C 91.847656 317.507812 92.476562 317.960938 93.058594 318.378906 C 95.382812 320.058594 96.933594 321.175781 96.933594 321.175781 C 96.933594 321.175781 97.273438 321.453125 97.816406 321.804688 C 98.359375 322.167969 99.082031 322.648438 99.800781 323.132812 C 101.242188 324.097656 102.6875 325.0625 102.6875 325.0625 C 103.070312 325.324219 103.472656 325.597656 103.894531 325.878906 C 104.328125 326.144531 104.78125 326.417969 105.25 326.699219 C 106.195312 327.269531 107.207031 327.875 108.285156 328.523438 C 110.414062 329.867188 112.9375 331.136719 115.660156 332.585938 C 116.347656 332.941406 117.035156 333.328125 117.757812 333.675781 C 118.488281 334.015625 119.230469 334.363281 119.984375 334.714844 C 121.5 335.414062 123.070312 336.140625 124.6875 336.894531 C 128.007812 338.195312 131.46875 339.753906 135.246094 340.96875 C 150.152344 346.382812 168.769531 349.738281 187.4375 349.8125 C 206.101562 349.738281 224.71875 346.382812 239.628906 340.96875 C 243.402344 339.753906 246.867188 338.195312 250.183594 336.890625 C 251.804688 336.140625 253.371094 335.414062 254.886719 334.710938 C 255.644531 334.359375 256.386719 334.015625 257.117188 333.675781 C 257.839844 333.328125 258.527344 332.941406 259.210938 332.585938 C 261.9375 331.136719 264.457031 329.867188 266.589844 328.523438 C 267.667969 327.875 268.679688 327.265625 269.621094 326.699219 C 270.089844 326.417969 270.542969 326.144531 270.976562 325.878906 C 271.398438 325.59375 271.800781 325.324219 272.1875 325.0625 C 272.1875 325.0625 273.628906 324.097656 275.074219 323.132812 C 275.792969 322.648438 276.515625 322.167969 277.054688 321.804688 C 277.601562 321.453125 277.9375 321.175781 277.9375 321.175781 C 277.9375 321.175781 279.488281 320.058594 281.8125 318.378906 C 282.394531 317.960938 283.027344 317.507812 283.691406 317.027344 C 284.335938 316.515625 285.011719 315.976562 285.714844 315.417969 C 287.109375 314.292969 288.621094 313.125 290.09375 311.902344 C 292.957031 309.371094 295.875 306.902344 297.886719 304.855469 C 298.917969 303.859375 299.777344 303.027344 300.378906 302.445312 C 300.980469 301.867188 301.316406 301.527344 301.316406 301.527344 C 301.316406 301.527344 302.636719 300.144531 304.621094 298.074219 C 306.664062 296.058594 309.089844 293.097656 311.621094 290.230469 C 313.96875 287.210938 316.429688 284.273438 318.035156 281.894531 C 319.707031 279.558594 320.816406 278 320.816406 278 L 324.667969 272.214844 C 332.679688 259.722656 339.101562 246.121094 343.296875 231.792969 C 347.660156 217.507812 349.671875 202.527344 349.804688 187.554688 L 349.808594 187.542969 L 349.8125 187.4375 L 349.808594 187.328125 " fill-opacity="1" fill-rule="nonzero"/></g><path fill="#f4f4f4" d="M 293.636719 187.476562 C 293.636719 189.21875 293.59375 190.960938 293.507812 192.699219 C 293.421875 194.441406 293.292969 196.179688 293.125 197.914062 C 292.953125 199.648438 292.738281 201.375 292.484375 203.101562 C 292.226562 204.824219 291.929688 206.539062 291.589844 208.25 C 291.25 209.957031 290.871094 211.65625 290.445312 213.347656 C 290.023438 215.039062 289.558594 216.71875 289.054688 218.386719 C 288.546875 220.054688 288 221.707031 287.414062 223.347656 C 286.828125 224.988281 286.203125 226.613281 285.535156 228.222656 C 284.867188 229.832031 284.164062 231.425781 283.417969 233 C 282.671875 234.578125 281.890625 236.132812 281.070312 237.671875 C 280.25 239.207031 279.390625 240.722656 278.496094 242.21875 C 277.597656 243.710938 276.667969 245.183594 275.699219 246.632812 C 274.734375 248.082031 273.730469 249.503906 272.691406 250.90625 C 271.65625 252.304688 270.582031 253.679688 269.480469 255.027344 C 268.375 256.371094 267.238281 257.691406 266.066406 258.984375 C 264.898438 260.273438 263.695312 261.535156 262.464844 262.769531 C 261.234375 264 259.972656 265.203125 258.683594 266.371094 C 257.390625 267.542969 256.074219 268.679688 254.726562 269.785156 C 253.378906 270.890625 252.007812 271.960938 250.609375 273 C 249.210938 274.039062 247.785156 275.042969 246.339844 276.011719 C 244.890625 276.976562 243.417969 277.910156 241.925781 278.804688 C 240.429688 279.703125 238.917969 280.558594 237.378906 281.382812 C 235.84375 282.203125 234.289062 282.988281 232.714844 283.730469 C 231.140625 284.476562 229.546875 285.183594 227.9375 285.847656 C 226.332031 286.515625 224.707031 287.144531 223.066406 287.730469 C 221.425781 288.316406 219.773438 288.863281 218.105469 289.371094 C 216.4375 289.875 214.761719 290.339844 213.070312 290.765625 C 211.382812 291.1875 209.683594 291.570312 207.976562 291.910156 C 206.265625 292.25 204.550781 292.546875 202.828125 292.800781 C 201.105469 293.058594 199.378906 293.269531 197.644531 293.441406 C 195.910156 293.613281 194.175781 293.742188 192.433594 293.828125 C 190.695312 293.910156 188.953125 293.953125 187.214844 293.953125 C 185.472656 293.953125 183.730469 293.910156 181.992188 293.828125 C 180.25 293.742188 178.515625 293.613281 176.78125 293.441406 C 175.046875 293.269531 173.320312 293.058594 171.597656 292.800781 C 169.875 292.546875 168.160156 292.25 166.453125 291.910156 C 164.742188 291.570312 163.042969 291.1875 161.355469 290.765625 C 159.664062 290.339844 157.988281 289.875 156.320312 289.371094 C 154.652344 288.863281 153 288.316406 151.359375 287.730469 C 149.722656 287.144531 148.097656 286.515625 146.488281 285.847656 C 144.878906 285.183594 143.285156 284.476562 141.710938 283.730469 C 140.136719 282.988281 138.582031 282.203125 137.046875 281.382812 C 135.511719 280.558594 133.996094 279.703125 132.5 278.804688 C 131.007812 277.910156 129.535156 276.976562 128.089844 276.011719 C 126.640625 275.042969 125.214844 274.039062 123.816406 273 C 122.417969 271.960938 121.046875 270.890625 119.699219 269.785156 C 118.351562 268.679688 117.035156 267.542969 115.746094 266.371094 C 114.453125 265.203125 113.191406 264 111.960938 262.769531 C 110.730469 261.535156 109.527344 260.273438 108.359375 258.984375 C 107.191406 257.691406 106.050781 256.371094 104.949219 255.027344 C 103.84375 253.679688 102.769531 252.304688 101.734375 250.90625 C 100.695312 249.503906 99.695312 248.082031 98.726562 246.632812 C 97.757812 245.183594 96.828125 243.710938 95.933594 242.21875 C 95.035156 240.722656 94.179688 239.207031 93.355469 237.671875 C 92.535156 236.132812 91.753906 234.578125 91.007812 233 C 90.265625 231.425781 89.558594 229.832031 88.890625 228.222656 C 88.226562 226.613281 87.597656 224.988281 87.011719 223.347656 C 86.425781 221.707031 85.878906 220.054688 85.375 218.386719 C 84.867188 216.71875 84.402344 215.039062 83.980469 213.347656 C 83.558594 211.65625 83.175781 209.957031 82.835938 208.25 C 82.496094 206.539062 82.199219 204.824219 81.941406 203.101562 C 81.6875 201.375 81.472656 199.648438 81.304688 197.914062 C 81.132812 196.179688 81.003906 194.441406 80.917969 192.699219 C 80.832031 190.960938 80.789062 189.21875 80.789062 187.476562 C 80.789062 185.734375 80.832031 183.992188 80.917969 182.25 C 81.003906 180.511719 81.132812 178.773438 81.304688 177.039062 C 81.472656 175.304688 81.6875 173.578125 81.941406 171.851562 C 82.199219 170.128906 82.496094 168.414062 82.835938 166.703125 C 83.175781 164.996094 83.558594 163.292969 83.980469 161.605469 C 84.402344 159.914062 84.867188 158.234375 85.375 156.566406 C 85.878906 154.898438 86.425781 153.246094 87.011719 151.605469 C 87.597656 149.964844 88.226562 148.339844 88.890625 146.730469 C 89.558594 145.117188 90.265625 143.527344 91.007812 141.949219 C 91.753906 140.375 92.535156 138.820312 93.355469 137.28125 C 94.179688 135.746094 95.035156 134.230469 95.933594 132.734375 C 96.828125 131.242188 97.757812 129.769531 98.726562 128.320312 C 99.695312 126.871094 100.695312 125.445312 101.734375 124.046875 C 102.769531 122.648438 103.84375 121.273438 104.949219 119.925781 C 106.050781 118.582031 107.191406 117.261719 108.359375 115.96875 C 109.527344 114.679688 110.730469 113.417969 111.960938 112.183594 C 113.191406 110.953125 114.453125 109.75 115.746094 108.582031 C 117.035156 107.410156 118.351562 106.273438 119.699219 105.167969 C 121.046875 104.0625 122.417969 102.992188 123.816406 101.953125 C 125.214844 100.914062 126.640625 99.910156 128.089844 98.941406 C 129.535156 97.976562 131.007812 97.042969 132.5 96.148438 C 133.996094 95.25 135.511719 94.390625 137.046875 93.570312 C 138.582031 92.75 140.136719 91.964844 141.710938 91.222656 C 143.285156 90.476562 144.878906 89.769531 146.488281 89.101562 C 148.097656 88.4375 149.722656 87.808594 151.359375 87.222656 C 153 86.636719 154.652344 86.089844 156.320312 85.582031 C 157.988281 85.078125 159.664062 84.613281 161.355469 84.1875 C 163.042969 83.765625 164.742188 83.382812 166.453125 83.042969 C 168.160156 82.703125 169.875 82.40625 171.597656 82.152344 C 173.320312 81.894531 175.046875 81.683594 176.78125 81.511719 C 178.515625 81.339844 180.25 81.210938 181.992188 81.125 C 183.730469 81.039062 185.472656 81 187.214844 81 C 188.953125 81 190.695312 81.039062 192.433594 81.125 C 194.175781 81.210938 195.910156 81.339844 197.644531 81.511719 C 199.378906 81.683594 201.105469 81.894531 202.828125 82.152344 C 204.550781 82.40625 206.265625 82.703125 207.976562 83.042969 C 209.683594 83.382812 211.382812 83.765625 213.070312 84.1875 C 214.761719 84.613281 216.4375 85.078125 218.105469 85.582031 C 219.773438 86.089844 221.425781 86.636719 223.066406 87.222656 C 224.707031 87.808594 226.332031 88.4375 227.9375 89.101562 C 229.546875 89.769531 231.140625 90.476562 232.714844 91.222656 C 234.289062 91.964844 235.84375 92.75 237.378906 93.570312 C 238.917969 94.390625 240.429688 95.25 241.925781 96.148438 C 243.417969 97.042969 244.890625 97.976562 246.339844 98.941406 C 247.785156 99.910156 249.210938 100.914062 250.609375 101.953125 C 252.007812 102.992188 253.378906 104.0625 254.726562 105.167969 C 256.074219 106.273438 257.390625 107.410156 258.683594 108.582031 C 259.972656 109.75 261.234375 110.953125 262.464844 112.183594 C 263.695312 113.417969 264.898438 114.679688 266.066406 115.96875 C 267.238281 117.261719 268.375 118.582031 269.480469 119.925781 C 270.582031 121.273438 271.65625 122.648438 272.691406 124.046875 C 273.730469 125.445312 274.734375 126.871094 275.699219 128.320312 C 276.667969 129.769531 277.597656 131.242188 278.496094 132.734375 C 279.390625 134.230469 280.25 135.746094 281.070312 137.28125 C 281.890625 138.820312 282.671875 140.375 283.417969 141.949219 C 284.164062 143.527344 284.867188 145.117188 285.535156 146.730469 C 286.203125 148.339844 286.828125 149.964844 287.414062 151.605469 C 288 153.246094 288.546875 154.898438 289.054688 156.566406 C 289.558594 158.234375 290.023438 159.914062 290.445312 161.605469 C 290.871094 163.292969 291.25 164.996094 291.589844 166.703125 C 291.929688 168.414062 292.226562 170.128906 292.484375 171.851562 C 292.738281 173.578125 292.953125 175.304688 293.125 177.039062 C 293.292969 178.773438 293.421875 180.511719 293.507812 182.25 C 293.59375 183.992188 293.636719 185.734375 293.636719 187.476562 Z M 293.636719 187.476562 " fill-opacity="1" fill-rule="nonzero"/><path fill="#1a154e" d="M 187.214844 295.929688 C 127.441406 295.929688 78.816406 247.277344 78.816406 187.476562 C 78.816406 127.671875 127.441406 79.019531 187.214844 79.019531 C 246.984375 79.019531 295.609375 127.671875 295.609375 187.476562 C 295.609375 247.277344 246.984375 295.929688 187.214844 295.929688 Z M 187.214844 82.972656 C 129.621094 82.972656 82.765625 129.855469 82.765625 187.476562 C 82.765625 245.097656 129.621094 291.976562 187.214844 291.976562 C 244.804688 291.976562 291.660156 245.097656 291.660156 187.476562 C 291.660156 129.855469 244.804688 82.972656 187.214844 82.972656 Z M 187.214844 82.972656 " fill-opacity="1" fill-rule="nonzero"/><path fill="#1a154e" d="M 126.683594 205.742188 C 123.5 205.742188 120.90625 208.335938 120.90625 211.523438 C 120.90625 214.707031 123.5 217.304688 126.683594 217.304688 C 129.871094 217.304688 132.46875 214.710938 132.46875 211.523438 C 132.46875 208.332031 129.875 205.742188 126.683594 205.742188 Z M 126.683594 213.976562 C 125.332031 213.976562 124.230469 212.875 124.230469 211.519531 C 124.230469 210.164062 125.332031 209.066406 126.683594 209.066406 C 128.039062 209.066406 129.140625 210.167969 129.140625 211.519531 C 129.140625 212.875 128.039062 213.976562 126.683594 213.976562 Z M 126.683594 213.976562 " fill-opacity="1" fill-rule="nonzero"/><g clip-path="url(#d0ab57a92a)"><path fill="#1a154e" d="M 253.453125 188.515625 L 253.453125 137.757812 C 253.453125 134.511719 250.8125 131.871094 247.566406 131.871094 L 118.386719 131.871094 C 115.140625 131.871094 112.5 134.511719 112.5 137.757812 L 112.5 216.316406 C 112.5 219.570312 115.140625 222.21875 118.386719 222.21875 L 166.253906 222.21875 L 166.253906 236.472656 L 165.507812 236.472656 C 161.273438 236.472656 157.824219 239.921875 157.824219 244.15625 C 157.824219 248.390625 161.273438 251.839844 165.507812 251.839844 L 200.453125 251.839844 C 204.691406 251.839844 208.136719 248.394531 208.136719 244.15625 C 208.136719 239.917969 204.691406 236.472656 200.453125 236.472656 L 199.710938 236.472656 L 199.710938 222.21875 L 209.582031 222.21875 C 214.300781 231.117188 223.652344 237.199219 234.410156 237.199219 C 249.898438 237.199219 262.5 224.597656 262.5 209.105469 C 262.5 200.96875 259.003906 193.648438 253.457031 188.515625 Z M 115.824219 137.757812 C 115.824219 136.34375 116.972656 135.195312 118.386719 135.195312 L 247.566406 135.195312 C 248.980469 135.195312 250.128906 136.34375 250.128906 137.757812 L 250.128906 185.835938 C 249.386719 185.332031 248.621094 184.867188 247.832031 184.4375 L 247.832031 143.046875 C 247.832031 139.992188 245.347656 137.507812 242.292969 137.507812 L 123.675781 137.507812 C 120.613281 137.507812 118.121094 139.992188 118.121094 143.046875 L 118.121094 200.832031 L 115.824219 200.832031 Z M 207.558594 200.832031 L 121.445312 200.832031 L 121.445312 143.046875 C 121.445312 141.828125 122.445312 140.832031 123.675781 140.832031 L 242.292969 140.832031 C 243.515625 140.832031 244.507812 141.828125 244.507812 143.046875 L 244.507812 182.921875 C 241.367188 181.703125 237.96875 181.011719 234.40625 181.011719 C 221.792969 181.011719 211.097656 189.367188 207.558594 200.832031 Z M 200.453125 239.800781 C 202.855469 239.800781 204.808594 241.753906 204.808594 244.15625 C 204.808594 246.558594 202.855469 248.511719 200.453125 248.511719 L 165.507812 248.511719 C 163.109375 248.511719 161.152344 246.558594 161.152344 244.15625 C 161.152344 241.753906 163.109375 239.800781 165.507812 239.800781 Z M 169.578125 236.472656 L 169.578125 222.21875 L 196.382812 222.21875 L 196.382812 236.472656 Z M 198.078125 218.894531 C 198.066406 218.894531 198.058594 218.886719 198.046875 218.886719 L 167.917969 218.886719 C 167.90625 218.886719 167.898438 218.894531 167.886719 218.894531 L 118.386719 218.894531 C 116.972656 218.894531 115.824219 217.738281 115.824219 216.316406 L 115.824219 204.160156 L 206.777344 204.160156 C 206.488281 205.769531 206.3125 207.414062 206.3125 209.105469 C 206.3125 212.550781 206.964844 215.839844 208.109375 218.894531 Z M 234.410156 233.871094 C 220.753906 233.871094 209.640625 222.761719 209.640625 209.105469 C 209.640625 195.449219 220.753906 184.335938 234.410156 184.335938 C 248.066406 184.335938 259.175781 195.449219 259.175781 209.105469 C 259.175781 222.761719 248.066406 233.871094 234.410156 233.871094 Z M 234.410156 233.871094 " fill-opacity="1" fill-rule="nonzero"/></g><path fill="#1a154e" d="M 238.039062 227.121094 L 230.777344 227.121094 C 229.859375 227.121094 229.113281 226.375 229.113281 225.457031 L 229.113281 221.808594 C 228.03125 221.355469 227.007812 220.761719 226.0625 220.035156 L 222.894531 221.867188 C 222.511719 222.085938 222.054688 222.144531 221.628906 222.035156 C 221.207031 221.921875 220.839844 221.640625 220.621094 221.257812 L 216.992188 214.96875 C 216.53125 214.175781 216.804688 213.15625 217.601562 212.699219 L 220.765625 210.871094 C 220.6875 210.28125 220.648438 209.691406 220.648438 209.105469 C 220.648438 208.523438 220.6875 207.933594 220.765625 207.34375 L 217.601562 205.515625 C 217.21875 205.296875 216.941406 204.933594 216.824219 204.507812 C 216.710938 204.082031 216.769531 203.628906 216.992188 203.246094 L 220.621094 196.957031 C 220.84375 196.574219 221.203125 196.296875 221.628906 196.179688 C 222.058594 196.066406 222.511719 196.128906 222.894531 196.347656 L 226.0625 198.179688 C 227.007812 197.453125 228.03125 196.859375 229.113281 196.40625 L 229.113281 192.753906 C 229.113281 191.835938 229.859375 191.09375 230.777344 191.09375 L 238.039062 191.09375 C 238.957031 191.09375 239.699219 191.835938 239.699219 192.753906 L 239.699219 196.40625 C 240.785156 196.859375 241.804688 197.453125 242.75 198.179688 L 245.921875 196.347656 C 246.304688 196.125 246.761719 196.066406 247.183594 196.179688 C 247.609375 196.292969 247.972656 196.574219 248.195312 196.957031 L 251.824219 203.246094 C 252.042969 203.628906 252.101562 204.082031 251.988281 204.507812 C 251.875 204.933594 251.597656 205.296875 251.214844 205.515625 L 248.050781 207.34375 C 248.128906 207.933594 248.167969 208.523438 248.167969 209.105469 C 248.167969 209.691406 248.128906 210.28125 248.050781 210.871094 L 251.214844 212.699219 C 252.011719 213.15625 252.28125 214.175781 251.824219 214.96875 L 248.195312 221.257812 C 247.972656 221.640625 247.609375 221.917969 247.183594 222.035156 C 246.761719 222.148438 246.304688 222.089844 245.921875 221.867188 L 242.75 220.035156 C 241.804688 220.761719 240.785156 221.355469 239.699219 221.808594 L 239.699219 225.457031 C 239.699219 226.375 238.957031 227.121094 238.039062 227.121094 Z M 232.441406 223.792969 L 236.375 223.792969 L 236.375 220.644531 C 236.375 219.917969 236.84375 219.277344 237.539062 219.058594 C 238.984375 218.605469 240.300781 217.839844 241.449219 216.785156 C 241.984375 216.292969 242.777344 216.207031 243.402344 216.570312 L 246.144531 218.152344 L 248.109375 214.746094 L 245.378906 213.167969 C 244.75 212.808594 244.429688 212.078125 244.585938 211.367188 C 244.753906 210.609375 244.839844 209.847656 244.839844 209.105469 C 244.839844 208.367188 244.753906 207.605469 244.585938 206.84375 C 244.429688 206.136719 244.75 205.40625 245.378906 205.042969 L 248.109375 203.46875 L 246.144531 200.058594 L 243.402344 201.640625 C 242.777344 202.003906 241.984375 201.917969 241.449219 201.425781 C 240.300781 200.371094 238.984375 199.609375 237.539062 199.152344 C 236.84375 198.9375 236.375 198.292969 236.375 197.566406 L 236.375 194.417969 L 232.441406 194.417969 L 232.441406 197.566406 C 232.441406 198.292969 231.96875 198.9375 231.277344 199.152344 C 229.832031 199.609375 228.515625 200.371094 227.367188 201.425781 C 226.828125 201.917969 226.039062 202.003906 225.410156 201.640625 L 222.671875 200.058594 L 220.703125 203.46875 L 223.4375 205.042969 C 224.066406 205.40625 224.386719 206.136719 224.226562 206.84375 C 224.058594 207.605469 223.976562 208.367188 223.976562 209.105469 C 223.976562 209.847656 224.058594 210.609375 224.226562 211.367188 C 224.386719 212.078125 224.066406 212.808594 223.4375 213.167969 L 220.703125 214.746094 L 222.671875 218.152344 L 225.410156 216.570312 C 226.039062 216.207031 226.828125 216.292969 227.367188 216.785156 C 228.515625 217.839844 229.832031 218.605469 231.277344 219.058594 C 231.96875 219.277344 232.441406 219.921875 232.441406 220.644531 Z M 234.40625 215.753906 C 230.742188 215.753906 227.761719 212.769531 227.761719 209.105469 C 227.761719 205.441406 230.742188 202.457031 234.40625 202.457031 C 238.074219 202.457031 241.054688 205.441406 241.054688 209.105469 C 241.054688 212.769531 238.074219 215.753906 234.40625 215.753906 Z M 234.40625 205.785156 C 232.578125 205.785156 231.085938 207.273438 231.085938 209.105469 C 231.085938 210.9375 232.578125 212.425781 234.40625 212.425781 C 236.238281 212.425781 237.726562 210.9375 237.726562 209.105469 C 237.726562 207.273438 236.238281 205.785156 234.40625 205.785156 Z M 234.40625 205.785156 " fill-opacity="1" fill-rule="nonzero"/><path fill="#1a154e" d="M 150.027344 184.335938 L 142.765625 184.335938 C 141.847656 184.335938 141.101562 183.59375 141.101562 182.675781 L 141.101562 179.027344 C 140.015625 178.570312 138.996094 177.980469 138.054688 177.253906 L 134.882812 179.082031 C 134.082031 179.542969 133.070312 179.269531 132.609375 178.476562 L 128.980469 172.1875 C 128.519531 171.390625 128.792969 170.375 129.589844 169.914062 L 132.753906 168.089844 C 132.675781 167.496094 132.636719 166.90625 132.636719 166.324219 C 132.636719 165.742188 132.675781 165.152344 132.753906 164.558594 L 129.589844 162.730469 C 129.207031 162.511719 128.929688 162.148438 128.8125 161.722656 C 128.699219 161.296875 128.757812 160.84375 128.980469 160.460938 L 132.609375 154.171875 C 132.832031 153.789062 133.195312 153.511719 133.621094 153.394531 C 134.042969 153.28125 134.496094 153.339844 134.882812 153.5625 L 138.054688 155.394531 C 138.996094 154.667969 140.015625 154.074219 141.101562 153.621094 L 141.101562 149.96875 C 141.101562 149.050781 141.847656 148.308594 142.765625 148.308594 L 150.027344 148.308594 C 150.945312 148.308594 151.691406 149.050781 151.691406 149.96875 L 151.691406 153.621094 C 152.773438 154.074219 153.792969 154.667969 154.738281 155.394531 L 157.910156 153.5625 C 158.292969 153.339844 158.746094 153.28125 159.171875 153.394531 C 159.597656 153.507812 159.960938 153.789062 160.179688 154.171875 L 163.8125 160.460938 C 164.03125 160.84375 164.089844 161.296875 163.976562 161.722656 C 163.863281 162.148438 163.585938 162.511719 163.203125 162.730469 L 160.039062 164.558594 C 160.117188 165.152344 160.15625 165.738281 160.15625 166.324219 C 160.15625 166.90625 160.117188 167.496094 160.039062 168.089844 L 163.203125 169.914062 C 164 170.375 164.269531 171.390625 163.8125 172.1875 L 160.179688 178.476562 C 159.71875 179.269531 158.707031 179.539062 157.910156 179.082031 L 154.738281 177.253906 C 153.792969 177.980469 152.773438 178.570312 151.691406 179.027344 L 151.691406 182.675781 C 151.691406 183.59375 150.945312 184.335938 150.027344 184.335938 Z M 144.425781 181.011719 L 148.363281 181.011719 L 148.363281 177.863281 C 148.363281 177.136719 148.835938 176.496094 149.527344 176.277344 C 150.972656 175.824219 152.289062 175.058594 153.4375 174.003906 C 153.972656 173.511719 154.765625 173.425781 155.394531 173.789062 L 158.132812 175.371094 L 160.097656 171.960938 L 157.367188 170.386719 C 156.738281 170.023438 156.417969 169.296875 156.574219 168.585938 C 156.742188 167.824219 156.828125 167.0625 156.828125 166.324219 C 156.828125 165.585938 156.742188 164.820312 156.574219 164.058594 C 156.417969 163.351562 156.738281 162.625 157.367188 162.261719 L 160.097656 160.683594 L 158.132812 157.277344 L 155.394531 158.859375 C 154.765625 159.222656 153.972656 159.132812 153.4375 158.644531 C 152.289062 157.589844 150.972656 156.824219 149.527344 156.371094 C 148.835938 156.152344 148.363281 155.511719 148.363281 154.785156 L 148.363281 151.636719 L 144.425781 151.636719 L 144.425781 154.785156 C 144.425781 155.511719 143.957031 156.152344 143.261719 156.371094 C 141.816406 156.824219 140.503906 157.589844 139.355469 158.644531 C 138.816406 159.136719 138.023438 159.222656 137.398438 158.859375 L 134.660156 157.277344 L 132.691406 160.683594 L 135.425781 162.261719 C 136.050781 162.625 136.371094 163.351562 136.21875 164.058594 C 136.046875 164.820312 135.960938 165.585938 135.960938 166.324219 C 135.960938 167.0625 136.046875 167.824219 136.21875 168.585938 C 136.375 169.296875 136.050781 170.023438 135.425781 170.386719 L 132.691406 171.960938 L 134.660156 175.371094 L 137.398438 173.789062 C 138.023438 173.429688 138.816406 173.511719 139.355469 174.003906 C 140.503906 175.058594 141.816406 175.824219 143.261719 176.277344 C 143.957031 176.496094 144.425781 177.136719 144.425781 177.863281 Z M 146.394531 172.96875 C 142.730469 172.96875 139.746094 169.988281 139.746094 166.320312 C 139.746094 162.65625 142.730469 159.675781 146.394531 159.675781 C 150.058594 159.675781 153.042969 162.65625 153.042969 166.320312 C 153.042969 169.988281 150.0625 172.96875 146.394531 172.96875 Z M 146.394531 163 C 144.5625 163 143.074219 164.492188 143.074219 166.320312 C 143.074219 168.152344 144.5625 169.644531 146.394531 169.644531 C 148.226562 169.644531 149.71875 168.152344 149.71875 166.320312 C 149.71875 164.492188 148.226562 163 146.394531 163 Z M 146.394531 163 " fill-opacity="1" fill-rule="nonzero"/><path fill="#1a154e" d="M 179.308594 195.738281 C 178.667969 195.738281 178.058594 195.363281 177.785156 194.742188 L 176.828125 192.558594 C 176.121094 192.550781 175.421875 192.476562 174.738281 192.332031 L 173.332031 194.246094 C 172.789062 194.984375 171.75 195.144531 171.007812 194.597656 L 166.726562 191.453125 C 166.375 191.191406 166.136719 190.796875 166.070312 190.363281 C 166.003906 189.925781 166.113281 189.480469 166.375 189.125 L 167.78125 187.210938 C 167.441406 186.601562 167.160156 185.957031 166.945312 185.285156 L 164.574219 185.019531 C 163.664062 184.917969 163.007812 184.097656 163.109375 183.183594 L 163.695312 177.90625 C 163.742188 177.46875 163.964844 177.066406 164.308594 176.792969 C 164.652344 176.519531 165.089844 176.382812 165.53125 176.4375 L 167.894531 176.699219 C 168.074219 176.394531 168.269531 176.101562 168.472656 175.820312 C 168.679688 175.542969 168.902344 175.269531 169.140625 175.007812 L 168.183594 172.828125 C 168.007812 172.421875 168 171.964844 168.15625 171.554688 C 168.320312 171.144531 168.636719 170.8125 169.039062 170.636719 L 173.90625 168.507812 C 174.75 168.140625 175.726562 168.523438 176.09375 169.363281 L 177.050781 171.546875 C 177.757812 171.550781 178.457031 171.625 179.140625 171.773438 L 180.546875 169.859375 C 180.808594 169.503906 181.203125 169.265625 181.636719 169.199219 C 182.070312 169.136719 182.519531 169.242188 182.875 169.503906 L 187.152344 172.652344 C 187.507812 172.914062 187.746094 173.304688 187.8125 173.742188 C 187.878906 174.179688 187.769531 174.621094 187.507812 174.976562 L 186.097656 176.890625 C 186.441406 177.503906 186.71875 178.144531 186.933594 178.816406 L 189.304688 179.082031 C 189.742188 179.128906 190.144531 179.351562 190.417969 179.695312 C 190.695312 180.039062 190.820312 180.480469 190.773438 180.917969 L 190.1875 186.195312 C 190.085938 187.109375 189.253906 187.773438 188.351562 187.664062 L 185.984375 187.402344 C 185.808594 187.707031 185.613281 188 185.40625 188.28125 C 185.203125 188.5625 184.980469 188.832031 184.742188 189.09375 L 185.699219 191.273438 C 186.066406 192.113281 185.683594 193.097656 184.839844 193.464844 L 179.976562 195.59375 C 179.757812 195.691406 179.53125 195.734375 179.308594 195.734375 Z M 177.894531 189.175781 C 178.546875 189.175781 179.148438 189.5625 179.417969 190.171875 L 180.167969 191.882812 L 181.984375 191.085938 L 181.238281 189.378906 C 180.949219 188.714844 181.121094 187.9375 181.667969 187.460938 C 182.070312 187.109375 182.429688 186.722656 182.730469 186.3125 C 183.035156 185.898438 183.300781 185.441406 183.515625 184.953125 C 183.808594 184.289062 184.503906 183.890625 185.21875 183.972656 L 187.070312 184.175781 L 187.289062 182.203125 L 185.433594 181.996094 C 184.710938 181.917969 184.125 181.378906 183.984375 180.664062 C 183.777344 179.609375 183.359375 178.648438 182.742188 177.808594 C 182.316406 177.222656 182.316406 176.425781 182.746094 175.839844 L 183.847656 174.347656 L 182.246094 173.167969 L 181.148438 174.664062 C 180.714844 175.25 179.957031 175.484375 179.269531 175.25 C 178.28125 174.910156 177.242188 174.800781 176.171875 174.917969 C 175.449219 174.984375 174.761719 174.59375 174.46875 173.929688 L 173.71875 172.21875 L 171.902344 173.015625 L 172.648438 174.71875 C 172.9375 175.382812 172.765625 176.160156 172.21875 176.640625 C 171.816406 176.996094 171.457031 177.382812 171.15625 177.792969 C 170.851562 178.203125 170.589844 178.65625 170.371094 179.152344 C 170.078125 179.816406 169.40625 180.21875 168.667969 180.132812 L 166.816406 179.925781 L 166.597656 181.898438 L 168.453125 182.105469 C 169.175781 182.1875 169.761719 182.726562 169.902344 183.4375 C 170.109375 184.492188 170.527344 185.453125 171.144531 186.296875 C 171.570312 186.882812 171.570312 187.679688 171.144531 188.265625 L 170.042969 189.757812 L 171.640625 190.9375 L 172.742188 189.441406 C 173.171875 188.855469 173.933594 188.621094 174.621094 188.851562 C 175.605469 189.191406 176.644531 189.300781 177.714844 189.1875 C 177.773438 189.179688 177.835938 189.175781 177.894531 189.175781 Z M 184.070312 187.296875 Z M 176.929688 187.363281 C 175.808594 187.363281 174.714844 187.007812 173.796875 186.328125 C 171.4375 184.59375 170.933594 181.261719 172.664062 178.90625 C 174.402344 176.546875 177.730469 176.042969 180.089844 177.773438 C 181.230469 178.613281 181.976562 179.851562 182.191406 181.253906 C 182.402344 182.652344 182.058594 184.054688 181.21875 185.199219 C 180.378906 186.339844 179.144531 187.085938 177.742188 187.300781 C 177.46875 187.34375 177.199219 187.363281 176.933594 187.363281 Z M 175.765625 183.648438 C 176.191406 183.960938 176.710938 184.085938 177.238281 184.011719 C 177.761719 183.929688 178.222656 183.652344 178.539062 183.226562 C 178.851562 182.796875 178.980469 182.273438 178.902344 181.753906 C 178.824219 181.230469 178.542969 180.769531 178.117188 180.453125 C 177.234375 179.804688 175.992188 179.992188 175.34375 180.875 C 174.699219 181.753906 174.886719 183 175.769531 183.648438 Z M 175.765625 183.648438 " fill-opacity="1" fill-rule="nonzero"/><g fill="#1a154e" fill-opacity="1"><g transform="translate(80.292627, 129.319564)"><g><path d="M -1.480469 -2.742188 C 0.628906 -2.84375 2.792969 -3.839844 4.40625 -6.410156 C 6.804688 -10.230469 5.632812 -13.894531 1.898438 -16.238281 L -9.832031 -23.597656 C -10.304688 -23.890625 -10.933594 -23.746094 -11.230469 -23.277344 L -15.8125 -15.972656 C -16.125 -15.476562 -15.980469 -14.84375 -15.507812 -14.550781 L -14.179688 -13.714844 C -13.710938 -13.421875 -13.082031 -13.566406 -12.769531 -14.0625 L -9.574219 -19.152344 L -0.03125 -13.167969 C 2.128906 -11.8125 2.441406 -10.035156 1.363281 -8.320312 C 0.617188 -7.128906 -0.21875 -6.65625 -1.511719 -6.5 C -2.1875 -6.347656 -2.550781 -6.074219 -2.542969 -5.410156 L -2.519531 -3.664062 C -2.535156 -3.210938 -1.96875 -2.699219 -1.480469 -2.742188 Z M -1.480469 -2.742188 "/></g></g></g><g fill="#1a154e" fill-opacity="1"><g transform="translate(90.816349, 112.902709)"><g><path d="M -5.058594 -21.957031 C -4.691406 -22.375 -4.734375 -23.019531 -5.152344 -23.386719 L -6.328125 -24.421875 C -6.746094 -24.789062 -7.390625 -24.746094 -7.757812 -24.328125 L -13.554688 -17.726562 C -13.921875 -17.308594 -13.902344 -16.640625 -13.484375 -16.273438 L 1.4375 -3.171875 C 1.855469 -2.804688 2.519531 -2.871094 2.886719 -3.289062 L 8.683594 -9.890625 C 9.050781 -10.308594 9.007812 -10.953125 8.589844 -11.320312 L 7.414062 -12.355469 C 6.996094 -12.71875 6.351562 -12.679688 5.984375 -12.261719 L 1.910156 -7.621094 L -2.332031 -11.351562 L 1.136719 -15.300781 C 1.523438 -15.742188 1.457031 -16.410156 1.039062 -16.777344 L -0.113281 -17.789062 C -0.53125 -18.15625 -1.199219 -18.136719 -1.589844 -17.695312 L -5.058594 -13.742188 L -9.132812 -17.320312 Z M -5.058594 -21.957031 "/></g></g></g><g fill="#1a154e" fill-opacity="1"><g transform="translate(103.825046, 98.375628)"><g><path d="M 3.046875 -2.515625 C 3.476562 -2.867188 3.539062 -3.511719 3.183594 -3.941406 L -5.007812 -13.867188 L 8.132812 -8.363281 C 9.019531 -7.953125 9.648438 -7.960938 10.152344 -8.378906 L 11.386719 -9.398438 C 11.8125 -9.75 11.875 -10.394531 11.523438 -10.820312 L -1.117188 -26.136719 C -1.46875 -26.566406 -2.113281 -26.628906 -2.542969 -26.273438 L -3.777344 -25.253906 C -4.207031 -24.902344 -4.265625 -24.257812 -3.914062 -23.828125 L 4.421875 -13.730469 L -8.808594 -19.449219 C -9.523438 -19.75 -10.074219 -20.058594 -10.855469 -19.414062 L -12.113281 -18.375 C -12.542969 -18.019531 -12.605469 -17.378906 -12.25 -16.949219 L 0.386719 -1.632812 C 0.742188 -1.203125 1.386719 -1.144531 1.8125 -1.496094 Z M 3.046875 -2.515625 "/></g></g></g><g fill="#1a154e" fill-opacity="1"><g transform="translate(118.985284, 86.110669)"><g><path d="M 3.410156 -1.996094 C 3.890625 -2.277344 4.054688 -2.902344 3.773438 -3.382812 L -2.730469 -14.488281 L 9.363281 -6.957031 C 10.175781 -6.410156 10.792969 -6.320312 11.359375 -6.652344 L 12.738281 -7.460938 C 13.21875 -7.738281 13.382812 -8.367188 13.101562 -8.84375 L 3.066406 -25.980469 C 2.789062 -26.460938 2.160156 -26.625 1.683594 -26.34375 L 0.300781 -25.535156 C -0.175781 -25.253906 -0.339844 -24.628906 -0.0585938 -24.148438 L 6.558594 -12.847656 L -5.59375 -20.605469 C -6.25 -21.015625 -6.746094 -21.410156 -7.617188 -20.898438 L -9.027344 -20.070312 C -9.507812 -19.792969 -9.671875 -19.164062 -9.390625 -18.6875 L 0.644531 -1.550781 C 0.925781 -1.070312 1.550781 -0.90625 2.027344 -1.1875 Z M 3.410156 -1.996094 "/></g></g></g><g fill="#1a154e" fill-opacity="1"><g transform="translate(135.908503, 76.422177)"><g><path d="M 6.097656 -21.972656 C 6.613281 -22.175781 6.875 -22.765625 6.675781 -23.285156 L 6.109375 -24.746094 C 5.910156 -25.261719 5.316406 -25.523438 4.800781 -25.324219 L -4.613281 -21.679688 C -5.128906 -21.480469 -5.390625 -20.886719 -5.191406 -20.371094 L -4.625 -18.90625 C -4.425781 -18.390625 -3.832031 -18.128906 -3.316406 -18.328125 L -0.300781 -19.496094 L 5.007812 -5.792969 L 1.992188 -4.625 C 1.472656 -4.421875 1.214844 -3.832031 1.414062 -3.3125 L 1.980469 -1.851562 C 2.179688 -1.335938 2.773438 -1.074219 3.289062 -1.273438 L 12.699219 -4.917969 C 13.21875 -5.117188 13.480469 -5.710938 13.277344 -6.226562 L 12.714844 -7.691406 C 12.511719 -8.207031 11.921875 -8.46875 11.402344 -8.269531 L 8.417969 -7.113281 L 3.113281 -20.816406 Z M 6.097656 -21.972656 "/></g></g></g><g fill="#1a154e" fill-opacity="1"><g transform="translate(154.160942, 69.558484)"><g><path d="M 0.0898438 -22.390625 C -0.453125 -22.273438 -0.808594 -21.730469 -0.691406 -21.1875 L 3.433594 -1.761719 C 3.546875 -1.21875 4.089844 -0.867188 4.632812 -0.984375 L 6.199219 -1.316406 C 6.742188 -1.429688 7.09375 -1.972656 6.976562 -2.515625 L 5.261719 -10.597656 L 10.375 -11.683594 C 10.917969 -11.800781 11.269531 -12.34375 11.15625 -12.886719 L 10.835938 -14.386719 C 10.714844 -14.960938 10.171875 -15.3125 9.628906 -15.199219 L 4.515625 -14.113281 L 3.390625 -19.417969 L 9.398438 -20.691406 C 9.941406 -20.808594 10.292969 -21.351562 10.175781 -21.894531 L 9.851562 -23.425781 C 9.738281 -23.96875 9.195312 -24.320312 8.652344 -24.207031 Z M 0.0898438 -22.390625 "/></g></g></g><g fill="#1a154e" fill-opacity="1"><g transform="translate(173.274791, 65.695502)"><g><path d="M 12.253906 -18.910156 C 12.808594 -18.9375 13.242188 -19.417969 13.214844 -19.972656 L 13.136719 -21.539062 C 13.109375 -22.09375 12.632812 -22.527344 12.078125 -22.5 L 3.300781 -22.070312 C 2.746094 -22.042969 2.28125 -21.5625 2.308594 -21.007812 L 3.277344 -1.175781 C 3.304688 -0.621094 3.816406 -0.1875 4.371094 -0.214844 L 13.144531 -0.644531 C 13.699219 -0.671875 14.136719 -1.148438 14.109375 -1.703125 L 14.03125 -3.269531 C 14.003906 -3.824219 13.527344 -4.257812 12.972656 -4.230469 L 6.804688 -3.929688 L 6.527344 -9.574219 L 11.78125 -9.832031 C 12.367188 -9.859375 12.800781 -10.371094 12.773438 -10.925781 L 12.699219 -12.457031 C 12.671875 -13.011719 12.191406 -13.480469 11.605469 -13.453125 L 6.351562 -13.195312 L 6.085938 -18.609375 Z M 12.253906 -18.910156 "/></g></g></g><g fill="#1a154e" fill-opacity="1"><g transform="translate(192.760173, 64.932251)"><g><path d="M 12.417969 -8.175781 C 15.070312 -8.699219 16.855469 -10.832031 17.179688 -13.753906 C 17.589844 -17.421875 15.480469 -20.289062 11.550781 -20.726562 L 5.644531 -21.386719 C 5.09375 -21.449219 4.589844 -21.046875 4.527344 -20.492188 L 2.320312 -0.757812 C 2.257812 -0.207031 2.660156 0.296875 3.214844 0.359375 L 4.804688 0.539062 C 5.386719 0.601562 5.894531 0.199219 5.953125 -0.351562 L 6.90625 -8.855469 C 7.378906 -8.671875 7.890625 -8.550781 8.402344 -8.425781 L 11.785156 0.398438 C 12.015625 0.980469 12.269531 1.371094 13.210938 1.476562 L 14.867188 1.664062 C 15.613281 1.746094 15.894531 0.988281 15.691406 0.441406 Z M 11.152344 -17.15625 C 12.742188 -16.980469 13.699219 -15.820312 13.511719 -14.132812 C 13.308594 -12.347656 12.054688 -11.402344 10.496094 -11.578125 L 7.25 -11.941406 L 7.875 -17.523438 Z M 11.152344 -17.15625 "/></g></g></g><g fill="#1a154e" fill-opacity="1"><g transform="translate(212.248485, 67.536453)"><g/></g></g><g fill="#1a154e" fill-opacity="1"><g transform="translate(223.654534, 70.235974)"><g><path d="M 11.070312 -19.179688 C 10.550781 -19.378906 9.960938 -19.117188 9.757812 -18.601562 L 2.589844 -0.0820312 C 2.386719 0.433594 2.648438 1.027344 3.167969 1.226562 L 4.660156 1.804688 C 5.175781 2.003906 5.800781 1.753906 6 1.238281 L 8.195312 -4.425781 L 11.085938 -3.308594 C 15.257812 -1.691406 18.757812 -4.121094 20.160156 -7.746094 C 21.550781 -11.339844 20.601562 -15.488281 16.429688 -17.105469 Z M 12.238281 -14.875 L 14.886719 -13.847656 C 17.113281 -12.988281 17.503906 -11.015625 16.75 -9.066406 C 15.980469 -7.085938 14.375 -5.921875 12.152344 -6.78125 L 9.503906 -7.808594 Z M 12.238281 -14.875 "/></g></g></g><g fill="#1a154e" fill-opacity="1"><g transform="translate(241.769703, 77.454218)"><g><path d="M 19.234375 -15.269531 C 20.023438 -14.808594 20.46875 -14.921875 21.042969 -15.191406 L 24.007812 -16.828125 C 24.554688 -17.113281 24.644531 -17.851562 24.054688 -18.199219 L 22.304688 -19.222656 C 21.546875 -19.667969 21.148438 -19.445312 20.722656 -18.976562 L 18.28125 -17 C 17.902344 -16.617188 17.964844 -16.011719 18.445312 -15.730469 Z M 20.601562 -9.132812 C 21.078125 -8.851562 21.703125 -9.015625 21.984375 -9.496094 L 22.777344 -10.847656 C 23.058594 -11.328125 22.894531 -11.953125 22.414062 -12.234375 L 14.832031 -16.671875 C 14.355469 -16.953125 13.699219 -16.804688 13.421875 -16.328125 L 3.386719 0.808594 C 3.105469 1.289062 3.296875 1.929688 3.777344 2.210938 L 11.359375 6.652344 C 11.835938 6.929688 12.464844 6.765625 12.742188 6.289062 L 13.535156 4.933594 C 13.816406 4.457031 13.652344 3.832031 13.171875 3.550781 L 7.847656 0.429688 L 10.703125 -4.445312 L 15.238281 -1.789062 C 15.746094 -1.492188 16.390625 -1.683594 16.667969 -2.160156 L 17.445312 -3.488281 C 17.726562 -3.964844 17.578125 -4.621094 17.070312 -4.917969 L 12.535156 -7.574219 L 15.273438 -12.25 Z M 20.601562 -9.132812 "/></g></g></g><g fill="#1a154e" fill-opacity="1"><g transform="translate(258.500803, 87.470799)"><g><path d="M 14.867188 -0.0546875 C 17.375 0.957031 20.035156 0.148438 21.90625 -2.121094 C 24.253906 -4.964844 24.054688 -8.519531 21.007812 -11.035156 L 16.421875 -14.820312 C 15.992188 -15.171875 15.351562 -15.109375 14.996094 -14.683594 L 2.355469 0.632812 C 2.003906 1.0625 2.066406 1.703125 2.492188 2.058594 L 3.726562 3.078125 C 4.179688 3.449219 4.824219 3.390625 5.179688 2.960938 L 10.625 -3.640625 C 10.921875 -3.226562 11.28125 -2.84375 11.644531 -2.460938 L 9.652344 6.777344 C 9.523438 7.394531 9.523438 7.859375 10.253906 8.460938 L 11.535156 9.519531 C 12.117188 10 12.765625 9.519531 12.898438 8.949219 Z M 18.71875 -8.265625 C 19.953125 -7.246094 20.121094 -5.753906 19.039062 -4.445312 C 17.894531 -3.058594 16.328125 -2.953125 15.121094 -3.953125 L 12.601562 -6.03125 L 16.175781 -10.363281 Z M 18.71875 -8.265625 "/></g></g></g><g fill="#1a154e" fill-opacity="1"><g transform="translate(273.419041, 100.02899)"><g><path d="M 22.429688 -2.175781 C 22.792969 -1.761719 23.441406 -1.71875 23.855469 -2.085938 L 25.035156 -3.117188 C 25.453125 -3.484375 25.496094 -4.128906 25.128906 -4.546875 L 19.332031 -11.148438 C 18.964844 -11.566406 18.296875 -11.632812 17.878906 -11.265625 L 2.957031 1.835938 C 2.542969 2.203125 2.519531 2.871094 2.886719 3.289062 L 8.683594 9.890625 C 9.050781 10.308594 9.695312 10.351562 10.113281 9.984375 L 11.292969 8.949219 C 11.707031 8.582031 11.75 7.9375 11.382812 7.519531 L 7.3125 2.882812 L 11.558594 -0.847656 L 15.027344 3.105469 C 15.414062 3.546875 16.085938 3.566406 16.5 3.199219 L 17.65625 2.1875 C 18.070312 1.820312 18.136719 1.15625 17.75 0.710938 L 14.28125 -3.238281 L 18.355469 -6.816406 Z M 22.429688 -2.175781 "/></g></g></g><g fill="#1a154e" fill-opacity="1"><g transform="translate(286.142032, 114.806926)"><g><path d="M 1.882812 1.09375 C 1.410156 1.390625 1.265625 2.019531 1.5625 2.488281 L 7.53125 12.007812 C 7.84375 12.503906 8.476562 12.648438 8.972656 12.335938 L 10.273438 11.519531 C 10.746094 11.226562 10.890625 10.597656 10.578125 10.097656 L 6.339844 3.347656 L 22.542969 3.054688 C 23.175781 3.078125 23.679688 2.957031 24.371094 2.523438 L 25.699219 1.691406 C 26.167969 1.394531 26.3125 0.765625 26.015625 0.296875 L 20.152344 -9.054688 C 19.855469 -9.527344 19.226562 -9.671875 18.753906 -9.375 L 17.425781 -8.542969 C 16.957031 -8.246094 16.8125 -7.617188 17.109375 -7.148438 L 21.253906 -0.535156 L 5.035156 -0.269531 C 4.449219 -0.285156 3.929688 -0.191406 3.210938 0.261719 Z M 1.882812 1.09375 "/></g></g></g><g fill="#1a154e" fill-opacity="1"><g transform="translate(44.813352, 192.729771)"><g><path d="M 19.640625 11.585938 C 19.699219 12.140625 20.203125 12.542969 20.753906 12.484375 L 22.3125 12.316406 C 22.867188 12.257812 23.273438 11.753906 23.210938 11.203125 L 22.132812 1.167969 C 22.074219 0.617188 21.570312 0.210938 21.019531 0.269531 L 19.460938 0.4375 C 18.910156 0.496094 18.503906 1 18.5625 1.550781 L 18.90625 4.765625 L 4.292969 6.339844 L 3.949219 3.125 C 3.890625 2.570312 3.386719 2.164062 2.835938 2.226562 L 1.277344 2.390625 C 0.722656 2.453125 0.316406 2.957031 0.378906 3.507812 L 1.457031 13.542969 C 1.515625 14.09375 2.019531 14.5 2.570312 14.441406 L 4.128906 14.273438 C 4.679688 14.214844 5.085938 13.710938 5.027344 13.15625 L 4.683594 9.976562 L 19.296875 8.40625 Z M 19.640625 11.585938 "/></g></g></g><g fill="#1a154e" fill-opacity="1"><g transform="translate(47.469038, 214.215373)"><g><path d="M 1.011719 3.820312 C 1.15625 4.355469 1.714844 4.679688 2.25 4.539062 L 14.691406 1.238281 L 4.203125 10.878906 C 3.460938 11.515625 3.207031 12.089844 3.375 12.722656 L 3.785156 14.269531 C 3.925781 14.804688 4.488281 15.128906 5.023438 14.988281 L 24.21875 9.894531 C 24.753906 9.753906 25.078125 9.195312 24.9375 8.65625 L 24.527344 7.109375 C 24.382812 6.574219 23.824219 6.25 23.289062 6.390625 L 10.628906 9.75 L 21.351562 0.113281 C 21.921875 -0.410156 22.433594 -0.78125 22.171875 -1.757812 L 21.753906 -3.339844 C 21.613281 -3.875 21.050781 -4.199219 20.515625 -4.058594 L 1.320312 1.035156 C 0.785156 1.175781 0.460938 1.734375 0.601562 2.273438 Z M 1.011719 3.820312 "/></g></g></g><g fill="#1a154e" fill-opacity="1"><g transform="translate(53.352146, 235.049787)"><g><path d="M 7.207031 -1.042969 C 3.164062 0.722656 1.371094 3.960938 3.1875 8.121094 C 5.003906 12.285156 8.601562 13.171875 12.640625 11.410156 L 17.042969 9.488281 C 17.550781 9.265625 17.816406 8.652344 17.59375 8.144531 L 15.675781 3.742188 C 15.453125 3.234375 14.820312 3.011719 14.3125 3.234375 L 12.90625 3.847656 C 12.394531 4.070312 12.128906 4.683594 12.351562 5.191406 L 13.214844 7.167969 L 11.179688 8.058594 C 8.84375 9.074219 7.304688 8.570312 6.480469 6.6875 C 5.660156 4.800781 6.335938 3.328125 8.667969 2.308594 L 15.824219 -0.8125 C 18.160156 -1.832031 19.789062 -1.117188 20.613281 0.769531 C 21.171875 2.054688 21.082031 2.984375 20.492188 4.167969 C 20.226562 4.785156 20.261719 5.269531 20.8125 5.632812 L 22.253906 6.574219 C 22.621094 6.839844 23.375 6.6875 23.617188 6.261719 C 24.71875 4.464844 25.105469 2.085938 23.90625 -0.667969 C 22.101562 -4.800781 18.402344 -5.929688 14.359375 -4.164062 Z M 7.207031 -1.042969 "/></g></g></g><g fill="#1a154e" fill-opacity="1"><g transform="translate(62.326619, 254.751106)"><g><path d="M 22.492188 1.351562 C 22.789062 1.820312 23.421875 1.964844 23.890625 1.667969 L 25.214844 0.828125 C 25.683594 0.53125 25.828125 -0.0976562 25.53125 -0.566406 L 20.835938 -7.996094 C 20.539062 -8.464844 19.890625 -8.632812 19.421875 -8.335938 L 2.636719 2.273438 C 2.167969 2.570312 2.042969 3.230469 2.339844 3.699219 L 7.035156 11.125 C 7.332031 11.59375 7.960938 11.738281 8.429688 11.441406 L 9.753906 10.601562 C 10.226562 10.304688 10.367188 9.675781 10.070312 9.207031 L 6.773438 3.988281 L 11.546875 0.96875 L 14.355469 5.414062 C 14.671875 5.910156 15.328125 6.035156 15.800781 5.738281 L 17.097656 4.917969 C 17.566406 4.621094 17.734375 3.972656 17.421875 3.476562 L 14.613281 -0.96875 L 19.195312 -3.867188 Z M 22.492188 1.351562 "/></g></g></g><g fill="#1a154e" fill-opacity="1"><g transform="translate(74.184887, 272.863676)"><g><path d="M 2.59375 2.980469 C 2.957031 3.398438 3.601562 3.445312 4.023438 3.082031 L 13.730469 -5.367188 L 8.570312 7.910156 C 8.183594 8.808594 8.210938 9.4375 8.640625 9.929688 L 9.691406 11.136719 C 10.054688 11.554688 10.699219 11.601562 11.117188 11.238281 L 26.097656 -1.796875 C 26.519531 -2.160156 26.5625 -2.808594 26.199219 -3.226562 L 25.148438 -4.433594 C 24.785156 -4.851562 24.140625 -4.898438 23.71875 -4.53125 L 13.839844 4.0625 L 19.214844 -9.3125 C 19.496094 -10.035156 19.789062 -10.59375 19.125 -11.355469 L 18.050781 -12.589844 C 17.6875 -13.007812 17.042969 -13.050781 16.625 -12.6875 L 1.644531 0.34375 C 1.222656 0.710938 1.179688 1.355469 1.542969 1.773438 Z M 2.59375 2.980469 "/></g></g></g><g fill="#1a154e" fill-opacity="1"><g transform="translate(88.652661, 288.968506)"><g><path d="M 22.210938 -5.15625 C 22.636719 -4.800781 23.28125 -4.851562 23.640625 -5.277344 L 24.652344 -6.472656 C 25.011719 -6.898438 24.957031 -7.542969 24.535156 -7.898438 L 16.832031 -14.421875 C 16.410156 -14.78125 15.765625 -14.726562 15.40625 -14.300781 L 14.390625 -13.105469 C 14.035156 -12.683594 14.085938 -12.039062 14.511719 -11.679688 L 16.976562 -9.589844 L 7.480469 1.625 L 5.011719 -0.460938 C 4.589844 -0.820312 3.945312 -0.769531 3.585938 -0.34375 L 2.574219 0.851562 C 2.214844 1.277344 2.269531 1.921875 2.691406 2.277344 L 10.394531 8.800781 C 10.816406 9.160156 11.460938 9.105469 11.820312 8.683594 L 12.835938 7.484375 C 13.191406 7.0625 13.140625 6.417969 12.714844 6.058594 L 10.273438 3.992188 L 19.769531 -7.226562 Z M 22.210938 -5.15625 "/></g></g></g><g fill="#1a154e" fill-opacity="1"><g transform="translate(105.395336, 302.693206)"><g><path d="M 20.785156 -8.707031 C 21.257812 -8.414062 21.886719 -8.566406 22.175781 -9.039062 L 22.996094 -10.375 C 23.285156 -10.847656 23.136719 -11.476562 22.664062 -11.769531 L 15.175781 -16.363281 C 14.699219 -16.652344 14.042969 -16.519531 13.753906 -16.046875 L 3.367188 0.878906 C 3.078125 1.351562 3.257812 2 3.730469 2.289062 L 11.21875 6.882812 C 11.691406 7.175781 12.320312 7.023438 12.609375 6.550781 L 13.429688 5.214844 C 13.722656 4.742188 13.570312 4.113281 13.097656 3.820312 L 7.835938 0.59375 L 10.792969 -4.222656 L 15.273438 -1.472656 C 15.773438 -1.164062 16.421875 -1.34375 16.710938 -1.816406 L 17.511719 -3.125 C 17.804688 -3.597656 17.671875 -4.253906 17.167969 -4.5625 L 12.6875 -7.3125 L 15.523438 -11.933594 Z M 20.785156 -8.707031 "/></g></g></g><g fill="#1a154e" fill-opacity="1"><g transform="translate(124.02563, 313.720237)"><g><path d="M 14.222656 -4.328125 C 16.917969 -4.082031 19.230469 -5.625 20.371094 -8.332031 C 21.800781 -11.734375 20.585938 -15.082031 16.941406 -16.613281 L 11.464844 -18.917969 C 10.953125 -19.132812 10.351562 -18.890625 10.136719 -18.378906 L 2.441406 -0.0742188 C 2.222656 0.441406 2.46875 1.039062 2.980469 1.253906 L 4.457031 1.875 C 4.996094 2.101562 5.597656 1.859375 5.8125 1.347656 L 9.128906 -6.542969 C 9.53125 -6.230469 9.984375 -5.96875 10.441406 -5.707031 L 11.191406 3.714844 C 11.25 4.339844 11.378906 4.785156 12.253906 5.152344 L 13.789062 5.800781 C 14.480469 6.089844 14.964844 5.445312 14.925781 4.859375 Z M 15.550781 -13.300781 C 17.027344 -12.679688 17.613281 -11.300781 16.957031 -9.734375 C 16.257812 -8.078125 14.789062 -7.527344 13.34375 -8.136719 L 10.332031 -9.402344 L 12.507812 -14.582031 Z M 15.550781 -13.300781 "/></g></g></g><g fill="#1a154e" fill-opacity="1"><g transform="translate(144.112639, 321.794576)"><g><path d="M 8.21875 2.398438 C 12.625 3.503906 15.523438 1.203125 16.597656 -3.074219 L 18.496094 -10.644531 C 19.570312 -14.921875 18.101562 -18.320312 13.699219 -19.425781 C 9.292969 -20.53125 6.394531 -18.230469 5.320312 -13.953125 L 3.417969 -6.382812 C 2.347656 -2.105469 3.816406 1.292969 8.21875 2.398438 Z M 9.09375 -1.085938 C 7.097656 -1.585938 6.347656 -3.019531 6.96875 -5.492188 L 8.867188 -13.0625 C 9.488281 -15.53125 10.828125 -16.441406 12.824219 -15.941406 C 14.820312 -15.441406 15.601562 -14 14.980469 -11.527344 L 13.082031 -3.957031 C 12.460938 -1.484375 11.089844 -0.585938 9.09375 -1.085938 Z M 9.09375 -1.085938 "/></g></g></g><g fill="#1a154e" fill-opacity="1"><g transform="translate(165.035503, 326.519654)"><g/></g></g><g fill="#1a154e" fill-opacity="1"><g transform="translate(178.440768, 328.153038)"><g><path d="M 3.136719 -21.882812 C 2.582031 -21.882812 2.121094 -21.425781 2.121094 -20.871094 L 2.121094 -1.011719 C 2.121094 -0.457031 2.582031 0 3.136719 0 L 8.882812 0 C 13.457031 0 15.675781 -2.90625 15.675781 -7.183594 L 15.675781 -14.46875 C 15.675781 -18.976562 13.457031 -21.882812 8.882812 -21.882812 Z M 12.019531 -7.183594 C 12.019531 -4.734375 11.007812 -3.59375 8.882812 -3.59375 L 5.78125 -3.59375 L 5.78125 -18.289062 L 8.882812 -18.289062 C 11.007812 -18.289062 12.019531 -17.148438 12.019531 -14.46875 Z M 12.019531 -7.183594 "/></g></g></g><g fill="#1a154e" fill-opacity="1"><g transform="translate(200.087149, 327.808746)"><g><path d="M 10.238281 -20.074219 C 10.785156 -20.160156 11.167969 -20.679688 11.082031 -21.230469 L 10.847656 -22.777344 C 10.761719 -23.328125 10.242188 -23.710938 9.691406 -23.625 L 1.007812 -22.292969 C 0.457031 -22.207031 0.0429688 -21.683594 0.128906 -21.132812 L 3.140625 -1.507812 C 3.222656 -0.957031 3.777344 -0.578125 4.324219 -0.664062 L 13.011719 -1.996094 C 13.558594 -2.082031 13.941406 -2.601562 13.855469 -3.148438 L 13.621094 -4.699219 C 13.535156 -5.25 13.015625 -5.632812 12.464844 -5.546875 L 6.363281 -4.609375 L 5.507812 -10.195312 L 10.703125 -10.992188 C 11.285156 -11.082031 11.664062 -11.636719 11.578125 -12.183594 L 11.347656 -13.703125 C 11.261719 -14.25 10.734375 -14.664062 10.15625 -14.578125 L 4.957031 -13.78125 L 4.136719 -19.136719 Z M 10.238281 -20.074219 "/></g></g></g><g fill="#1a154e" fill-opacity="1"><g transform="translate(221.205031, 324.050461)"><g/></g></g><g fill="#1a154e" fill-opacity="1"><g transform="translate(234.195714, 320.361898)"><g><path d="M 8.136719 -3.066406 C 11.566406 -4.511719 13.71875 -7.648438 12.113281 -11.472656 C 10.820312 -14.542969 8.691406 -15.984375 5.035156 -15.582031 L 1.878906 -15.246094 C 0.65625 -15.121094 -0.535156 -15.507812 -1.078125 -16.800781 C -1.761719 -18.425781 -0.792969 -19.828125 0.804688 -20.5 C 2.128906 -21.054688 3.273438 -21.113281 4.484375 -21.019531 C 5.113281 -21.035156 5.59375 -21.238281 5.742188 -21.902344 L 6.140625 -23.558594 C 6.261719 -24.035156 5.832031 -24.632812 5.339844 -24.710938 C 3.382812 -24.984375 1.609375 -24.734375 -0.289062 -23.9375 C -3.78125 -22.46875 -6.125 -19.285156 -4.480469 -15.371094 C -3.351562 -12.691406 -1.003906 -11.234375 2.210938 -11.59375 L 5.363281 -11.929688 C 6.898438 -12.078125 8.082031 -11.617188 8.675781 -10.203125 C 9.335938 -8.636719 8.546875 -7.136719 6.652344 -6.339844 C 5.265625 -5.757812 3.90625 -5.789062 2.613281 -6.34375 C 1.675781 -6.550781 1.367188 -6.351562 0.960938 -5.71875 L 0.144531 -4.453125 C -0.101562 -4.03125 0.0859375 -3.332031 0.515625 -3.15625 C 2.523438 -2.089844 5.035156 -1.761719 8.136719 -3.066406 Z M 8.136719 -3.066406 "/></g></g></g><g fill="#1a154e" fill-opacity="1"><g transform="translate(254.015812, 311.652863)"><g><path d="M 2.042969 -22.710938 C 2.515625 -23.003906 2.667969 -23.632812 2.375 -24.105469 L 1.558594 -25.441406 C 1.265625 -25.914062 0.636719 -26.066406 0.164062 -25.773438 L -8.4375 -20.496094 C -8.910156 -20.207031 -9.0625 -19.578125 -8.769531 -19.105469 L -7.949219 -17.765625 C -7.660156 -17.292969 -7.03125 -17.144531 -6.558594 -17.433594 L -3.800781 -19.125 L 3.882812 -6.597656 L 1.128906 -4.90625 C 0.65625 -4.617188 0.503906 -3.988281 0.792969 -3.515625 L 1.613281 -2.179688 C 1.90625 -1.703125 2.535156 -1.554688 3.007812 -1.84375 L 11.609375 -7.121094 C 12.082031 -7.414062 12.230469 -8.042969 11.941406 -8.515625 L 11.121094 -9.851562 C 10.832031 -10.324219 10.203125 -10.476562 9.730469 -10.183594 L 7 -8.511719 L -0.683594 -21.039062 Z M 2.042969 -22.710938 "/></g></g></g><g fill="#1a154e" fill-opacity="1"><g transform="translate(272.286024, 300.038976)"><g><path d="M 6.839844 -5.363281 C 9.683594 -7.769531 10.796875 -11.410156 8.117188 -14.574219 C 5.964844 -17.117188 3.5 -17.855469 0.132812 -16.375 L -2.777344 -15.109375 C -3.90625 -14.621094 -5.15625 -14.632812 -6.066406 -15.707031 C -7.203125 -17.050781 -6.699219 -18.679688 -5.378906 -19.796875 C -4.28125 -20.726562 -3.207031 -21.121094 -2.023438 -21.394531 C -1.429688 -21.601562 -1.027344 -21.9375 -1.089844 -22.617188 L -1.203125 -24.316406 C -1.230469 -24.804688 -1.820312 -25.25 -2.3125 -25.171875 C -4.261719 -24.847656 -5.878906 -24.078125 -7.449219 -22.75 C -10.34375 -20.300781 -11.625 -16.5625 -8.882812 -13.320312 C -7.003906 -11.101562 -4.324219 -10.417969 -1.367188 -11.722656 L 1.542969 -12.988281 C 2.957031 -13.589844 4.226562 -13.507812 5.21875 -12.335938 C 6.316406 -11.039062 6.015625 -9.371094 4.445312 -8.042969 C 3.296875 -7.074219 1.992188 -6.695312 0.589844 -6.832031 C -0.367188 -6.75 -0.597656 -6.46875 -0.796875 -5.742188 L -1.195312 -4.292969 C -1.304688 -3.816406 -0.914062 -3.203125 -0.457031 -3.167969 C 1.78125 -2.75 4.273438 -3.191406 6.839844 -5.363281 Z M 6.839844 -5.363281 "/></g></g></g><g fill="#1a154e" fill-opacity="1"><g transform="translate(288.583755, 285.788841)"><g><path d="M -14.878906 -16.234375 C -15.265625 -15.792969 -15.222656 -15.148438 -14.800781 -14.78125 L -13.621094 -13.753906 C -13.199219 -13.390625 -12.554688 -13.433594 -12.167969 -13.878906 L -9.359375 -17.105469 L 3.671875 -5.765625 C 4.09375 -5.402344 4.738281 -5.445312 5.101562 -5.863281 L 6.152344 -7.070312 C 6.515625 -7.492188 6.492188 -8.160156 6.074219 -8.523438 L -6.960938 -19.863281 L -4.171875 -23.070312 C -3.808594 -23.488281 -3.855469 -24.132812 -4.273438 -24.496094 L -5.457031 -25.527344 C -5.875 -25.890625 -6.519531 -25.84375 -6.882812 -25.425781 Z M -14.878906 -16.234375 "/></g></g></g><g fill="#1a154e" fill-opacity="1"><g transform="translate(302.532091, 269.232052)"><g><path d="M -8.425781 -20.898438 C -8.128906 -21.367188 -8.269531 -22 -8.742188 -22.296875 L -10.066406 -23.132812 C -10.535156 -23.429688 -11.164062 -23.289062 -11.460938 -22.820312 L -16.15625 -15.394531 C -16.453125 -14.921875 -16.328125 -14.265625 -15.859375 -13.96875 L 0.925781 -3.355469 C 1.394531 -3.058594 2.042969 -3.230469 2.339844 -3.699219 L 7.035156 -11.125 C 7.332031 -11.59375 7.1875 -12.226562 6.71875 -12.523438 L 5.394531 -13.359375 C 4.925781 -13.65625 4.292969 -13.515625 3.996094 -13.046875 L 0.699219 -7.828125 L -4.078125 -10.847656 L -1.269531 -15.292969 C -0.953125 -15.789062 -1.125 -16.4375 -1.59375 -16.734375 L -2.890625 -17.554688 C -3.359375 -17.851562 -4.019531 -17.726562 -4.332031 -17.230469 L -7.140625 -12.785156 L -11.722656 -15.679688 Z M -8.425781 -20.898438 "/></g></g></g><g fill="#1a154e" fill-opacity="1"><g transform="translate(313.808397, 250.751534)"><g><path d="M 1.582031 -3.621094 C 1.804688 -4.128906 1.566406 -4.734375 1.058594 -4.953125 L -10.585938 -10.039062 L -5.457031 -9.542969 C -4.867188 -9.5 -4.304688 -9.648438 -4.058594 -10.214844 L -3.730469 -10.964844 C -3.496094 -11.503906 -3.785156 -11.984375 -4.203125 -12.417969 L -8.609375 -17.015625 L 3.933594 -11.539062 C 4.441406 -11.316406 5.042969 -11.554688 5.265625 -12.0625 L 5.90625 -13.53125 C 6.128906 -14.039062 5.890625 -14.640625 5.382812 -14.863281 L -12.816406 -22.804688 C -13.324219 -23.027344 -13.929688 -22.792969 -14.148438 -22.285156 L -14.789062 -20.816406 C -15.167969 -19.949219 -14.730469 -19.402344 -14.234375 -18.828125 L -8.71875 -12.679688 L -16.664062 -13.257812 C -17.425781 -13.308594 -18.097656 -13.242188 -18.476562 -12.375 L -19.113281 -10.910156 C -19.335938 -10.398438 -19.101562 -9.796875 -18.59375 -9.574219 L -0.390625 -1.632812 C 0.117188 -1.410156 0.71875 -1.644531 0.941406 -2.15625 Z M 1.582031 -3.621094 "/></g></g></g><g fill="#1a154e" fill-opacity="1"><g transform="translate(322.151815, 230.774786)"><g><path d="M -17.5 -15.554688 C -18.109375 -15.550781 -18.621094 -15.144531 -18.773438 -14.578125 L -19.140625 -13.1875 C -19.292969 -12.621094 -19.046875 -12.011719 -18.519531 -11.703125 L -0.953125 -0.996094 C -0.433594 -0.65625 0.242188 -0.914062 0.402344 -1.515625 L 0.804688 -3.03125 C 1.011719 -3.820312 0.710938 -4.203125 0.160156 -4.554688 L -3.632812 -6.808594 L -2.132812 -12.460938 L 2.277344 -12.539062 C 2.914062 -12.507812 3.375 -12.722656 3.585938 -13.511719 L 3.984375 -15.027344 C 4.144531 -15.625 3.6875 -16.1875 3.074219 -16.179688 Z M -5.722656 -12.433594 L -6.738281 -8.613281 L -13.621094 -12.464844 Z M -5.722656 -12.433594 "/></g></g></g><g fill="#1a154e" fill-opacity="1"><g transform="translate(327.369424, 209.763837)"><g><path d="M 1.253906 -8.601562 C 1.652344 -12.304688 -0.0507812 -15.707031 -4.175781 -16.152344 C -7.488281 -16.507812 -9.78125 -15.339844 -11.199219 -11.945312 L -12.433594 -9.023438 C -12.914062 -7.890625 -13.828125 -7.039062 -15.226562 -7.1875 C -16.976562 -7.375 -17.734375 -8.902344 -17.550781 -10.625 C -17.394531 -12.054688 -16.890625 -13.082031 -16.222656 -14.09375 C -15.933594 -14.65625 -15.878906 -15.175781 -16.386719 -15.625 L -17.644531 -16.777344 C -18 -17.109375 -18.734375 -17.027344 -19.039062 -16.632812 C -20.226562 -15.050781 -20.867188 -13.378906 -21.085938 -11.332031 C -21.492188 -7.566406 -19.839844 -3.972656 -15.617188 -3.519531 C -12.730469 -3.207031 -10.316406 -4.558594 -9.078125 -7.546875 L -7.84375 -10.46875 C -7.230469 -11.878906 -6.257812 -12.695312 -4.730469 -12.53125 C -3.042969 -12.347656 -2.109375 -10.933594 -2.328125 -8.890625 C -2.488281 -7.394531 -3.175781 -6.222656 -4.285156 -5.355469 C -4.921875 -4.636719 -4.894531 -4.269531 -4.539062 -3.609375 L -3.828125 -2.285156 C -3.578125 -1.863281 -2.875 -1.6875 -2.515625 -1.976562 C -0.605469 -3.21875 0.894531 -5.257812 1.253906 -8.601562 Z M 1.253906 -8.601562 "/></g></g></g></svg>